<?xml version="1.0" encoding="UTF-8" standalone="yes"?>
<svg xmlns="http://www.w3.org/2000/svg" xmlns:xlink="http://www.w3.org/1999/xlink"
 stroke-linejoin="round" stroke-linecap="round" fill="none" fill-rule="evenodd" viewBox="10 5 160 210">

	<defs />
	<g>
		<path style="fill:#000000;fill-opacity:0.098;fill-rule:evenodd"
			d="M107.98,7.88L109.47,8.90L167.32,35.74L167.30,38.38L166.19,38.52L165.95,54.69L167.04,55.12L167.29,56.48L167.79,35.76L168.55,36.03L168.55,57.97L165.95,58.39L165.00,60.87L151.70,97.67L150.88,97.85L98.60,101.11L94.41,101.11L50.68,98.10L49.19,97.87L46.91,97.85L36.25,97.09L92.09,91.59L92.64,91.38L107.24,38.87L107.27,38.05L20.24,62.47L18.73,64.50L18.73,65.18L19.29,65.93L16.71,65.96L16.41,65.75L16.74,64.74L18.77,62.25L105.62,37.51L105.88,37.27L106.91,37.04L107.24,33.27L106.94,11.15L106.70,10.75L106.98,7.35zM89.48,25.15L88.61,25.28L88.52,25.00L89.42,24.99zM74.23,23.21L103.97,11.95L104.46,11.87L104.49,13.02L75.81,23.79L75.57,40.89L75.34,40.83L74.29,39.06zM70.27,39.81L73.32,40.52L73.59,40.77L73.56,41.63L73.22,42.56L72.03,42.56L71.03,42.30L70.21,42.34L70.00,42.63L70.03,37.76zM36.39,43.81L35.82,43.84L35.52,43.53L36.13,43.54zM41.55,35.52L71.46,24.18L72.04,24.19L71.96,25.22L43.06,36.02L42.90,51.44L41.62,49.10zM37.79,49.92L40.89,50.61L41.13,51.06L40.62,52.45L38.87,52.11L37.60,52.20L37.61,48.31zM40.04,37.03L38.04,37.79L36.49,38.51L22.82,58.51L21.46,59.16L20.68,59.15L35.00,38.02L40.15,36.03zM29.34,84.28L28.21,84.36L28.27,83.84L28.51,83.49L28.78,83.50zM35.63,95.83L34.48,95.91L34.73,95.29L35.10,94.84zM20.90,127.98L21.14,127.74L78.59,126.23L78.57,131.85L78.34,133.12L75.83,130.75zM36.64,131.74L36.62,148.20L35.85,146.61L35.34,145.36L35.26,131.51L36.39,131.49zM25.84,136.27L25.80,138.91L25.58,136.52L24.97,136.02L25.55,136.00zM74.57,140.55L74.56,143.94L74.34,140.79L73.47,140.32L74.09,140.07zM66.67,133.52L68.28,133.52L68.29,152.22L67.00,149.63L66.76,145.60zM17.26,145.43L16.99,146.16L15.92,146.45L15.91,130.51L17.27,130.51zM34.61,148.20L31.32,148.70L31.24,147.09L34.61,146.84zM170.33,153.09L169.04,154.73L168.06,154.66L164.96,155.41L150.11,171.72L90.31,188.08L89.54,188.08L99.11,175.51L99.41,175.31L99.95,174.34L103.13,170.23L103.43,170.03L103.98,169.07L105.61,166.93L106.24,167.56L108.16,165.45L108.70,165.21L108.42,164.92L109.96,164.96L109.66,164.68L169.04,153.13L169.76,153.25L169.77,152.85zM66.01,152.46L65.71,152.67L62.65,152.98L62.65,151.36L66.04,150.88zM123.52,182.01L123.51,182.54L121.45,185.07L121.09,185.05L120.81,184.80L117.72,184.02L117.73,183.77L117.48,183.76L113.80,187.94L110.38,189.11L110.37,189.39L112.28,189.58L112.30,189.89L110.53,191.96L107.91,192.87L107.13,192.86L107.52,192.10L107.41,192.08L106.41,193.12L79.99,201.42L79.49,201.40L87.77,190.31L87.90,190.31L88.90,191.93L90.81,189.83L149.87,173.23L150.73,173.33L149.86,174.49L147.10,175.24L144.59,177.77L140.44,182.41L133.61,184.62L129.68,185.73L127.87,183.00L127.60,182.78zM129.77,187.17L132.29,186.57L140.95,183.82L140.94,184.10L139.94,185.17L129.77,188.58L129.59,190.43L129.53,185.81L129.68,185.73zM122.99,188.67L127.25,187.30L128.10,187.30L128.11,188.17L127.82,188.64L122.98,190.33L122.81,192.70L122.51,190.58L122.25,190.34L122.51,190.16L122.80,187.80zM114.77,193.35L80.27,204.67L79.22,204.65L80.50,203.14L112.42,192.83L113.25,192.84zM78.81,205.00L77.00,205.68L76.21,205.66L78.07,203.15zM126.35,26.99L126.35,27.56L126.11,27.51L125.25,26.19L125.82,26.18zM156.26,39.56L156.26,40.12L155.48,39.00L155.07,38.94L155.16,38.76L155.73,38.74zM154.96,42.18L154.67,42.18L154.69,39.34L155.07,38.94zM140.07,45.40L140.14,26.80L141.41,26.45L141.40,45.93L140.38,45.59zM138.42,163.16L138.39,164.53L138.12,165.29L138.17,163.42L137.56,162.91L138.14,162.89zM137.21,163.57L136.37,164.54L136.37,164.06L137.17,163.45zM113.28,185.39L113.19,185.07L113.48,185.02zM112.58,186.19L111.99,186.91L111.99,186.41L112.54,186.07zM111.32,187.70L110.73,188.42L110.73,187.92L111.28,187.58zM110.07,189.20L109.48,189.92L109.48,189.43L110.03,189.09zM108.81,190.71L108.22,191.43L108.22,190.93L108.77,190.60z" />
		<g id="Actor_15.0">
			<g style="stroke:#000000;stroke-width:0.176">
				<path d="M15.75,130.14L15.42,130.13L15.71,130.14L15.65,146.27" />
				<path d="M17.25,130.27L17.19,146.11" />
				<path d="M34.43,148.12L34.40,148.11" />
				<path d="M34.26,146.00L34.29,145.98" />
				<path d="M33.99,131.30L34.08,131.27" />
				<path d="M34.03,131.29L34.74,131.34L33.88,131.29" />
				<path d="M35.15,131.36L34.74,131.34L35.19,131.36L35.20,131.39L35.19,144.79" />
				<path d="M35.27,131.36L35.19,131.36L35.40,131.35" />
				<path d="M36.79,131.45L36.78,148.70" />
				<path d="M41.48,35.43L41.48,48.69" />
				<path d="M43.05,51.70L43.04,35.82" />
				<path d="M65.07,133.17L64.97,133.19L65.00,133.19L64.87,133.18" />
				<path d="M65.00,133.19L66.57,133.28L66.64,148.65" />
				<path d="M65.65,152.49L65.74,152.51" />
				<path d="M65.77,152.49L65.74,152.48" />
				<path d="M65.40,150.08L65.49,150.03" />
				<path d="M65.49,150.06L65.54,150.04" />
				<path d="M66.12,133.26L66.45,133.28" />
				<path d="M66.80,133.27L66.57,133.28" />
				<path d="M66.67,133.28L66.75,133.28" />
				<path d="M68.23,133.37L68.29,152.20" />
				<path d="M72.64,42.54L72.67,42.57" />
				<path d="M73.16,40.10L73.09,40.10" />
				<path d="M73.92,23.23L73.99,38.38" />
				<path d="M75.60,40.99L75.52,23.75" />
				<path d="M104.81,34.21L104.86,34.16L105.13,34.08" />
				<path d="M105.13,34.13L104.92,34.20L105.00,34.25" />
				<path d="M106.88,10.78L107.08,33.42" />
				<path d="M108.47,11.46L108.67,33.97" />
				<path d="M139.89,26.71L139.85,45.23" />
				<path d="M141.30,26.30L141.27,45.70L141.18,45.71" />
				<path d="M141.27,45.70L141.41,45.72L143.07,46.32" />
				<path d="M141.24,45.73L141.33,45.74L142.94,46.31L142.96,46.34" />
				<path d="M167.52,38.08L167.37,54.87" />
			</g>
			<g style="stroke:#000000;stroke-width:0.529">
				<path d="M17.26,130.27L17.21,146.10L15.55,146.27L14.57,146.13L14.56,145.99L14.62,130.09" />
				<path d="M34.04,131.27L33.88,131.29L33.87,144.31" />
				<path d="M36.80,131.45L36.79,148.74" />
				<path
					d="M40.12,48.67L40.12,35.94L40.15,35.90L41.36,35.44L41.53,35.43L42.96,35.78L43.06,35.83L43.06,51.72" />
				<path d="M65.00,133.16L64.87,133.18L64.91,148.12" />
				<path d="M68.24,133.37L68.30,152.22" />
				<path d="M75.61,41.00L75.53,23.76L75.45,23.69L73.97,23.23L73.78,23.24L72.14,23.88L72.20,38.46" />
				<path d="M107.59,11.04L107.06,10.82L106.82,10.78L104.62,11.61L104.80,33.69L104.81,34.21L104.92,34.27" />
				<path d="M108.67,33.97L108.47,11.47" />
				<path
					d="M143.03,46.36L143.07,46.32L143.09,27.08L141.35,26.30L141.11,26.33L139.95,26.66L139.88,26.73L139.85,45.23" />
				<path d="M166.11,38.38L166.15,38.37" />
				<path d="M167.48,38.07L167.50,38.08" />
				<path d="M168.27,55.19L168.41,38.50L168.11,38.34" />
			</g>
		</g>
		<g id="Actor_16.0">
			<g style="stroke:#000000;stroke-width:0.176">
				<path d="M29.47,144.98L30.83,145.16L31.05,145.64L31.05,149.70L30.82,150.12" />
				<path d="M31.05,149.70L31.22,149.68" />
				<path d="M30.83,145.16L31.00,145.14" />
				<path d="M31.05,145.64L31.23,145.62" />
				<path d="M35.79,53.06L37.19,52.64L37.43,52.12L37.60,52.15" />
				<path d="M37.43,52.12L37.43,48.09L37.20,47.72" />
				<path d="M37.37,52.67L37.19,52.64" />
				<path d="M37.60,48.13L37.43,48.09" />
				<path d="M60.36,148.94L62.14,149.17L62.45,149.73L62.46,154.40L62.16,154.88" />
				<path d="M62.46,154.40L62.64,154.38" />
				<path d="M62.45,149.73L62.63,149.70" />
				<path d="M62.14,149.17L62.33,149.15" />
				<path d="M67.77,43.34L69.62,42.78L69.79,42.82" />
				<path d="M69.62,42.78L69.93,42.17L69.91,37.55L69.60,37.14" />
				<path d="M69.93,42.17L70.10,42.22" />
				<path d="M69.91,37.55L70.09,37.60" />
			</g>
			<g style="stroke:#000000;stroke-width:0.529">
				<path
					d="M29.47,149.91L30.82,150.12L31.00,150.10L31.22,149.68L31.23,145.62L31.00,145.14L29.65,144.96L29.47,144.98L29.25,145.40L29.24,149.43L29.47,149.91" />
				<path
					d="M35.86,53.08L35.79,53.06L35.56,52.69L35.56,48.70L35.80,48.18L37.20,47.72L37.37,47.76L37.60,48.13L37.60,52.15L37.37,52.67L35.96,53.10L35.86,53.08" />
				<path
					d="M60.07,154.05L60.37,154.61L62.16,154.88L62.34,154.85L62.64,154.38L62.63,149.70L62.33,149.15L60.54,148.92L60.36,148.94L60.06,149.42L60.07,154.05" />
				<path
					d="M67.94,43.39L69.79,42.82L70.10,42.22L70.09,37.60L69.77,37.18L69.60,37.14L67.75,37.74L67.44,38.35L67.46,42.93L67.77,43.34L67.94,43.39" />
			</g>
		</g>
		<g id="Actor_24.0">
			<g style="stroke:#000000;stroke-width:0.176">
				<path d="M23.78,137.24L23.94,137.27L24.06,137.35L24.03,137.35" />
				<path d="M25.77,138.86L25.48,138.88" />
				<path d="M24.92,136.03L24.95,136.02" />
				<path d="M34.77,44.59L34.79,44.55L34.67,44.43L34.56,44.39L34.51,44.41L34.51,44.44" />
				<path d="M34.62,44.56L34.60,44.54" />
				<path d="M34.58,44.53L34.53,44.48" />
				<path d="M35.12,43.42L35.17,43.37" />
				<path d="M35.47,43.59L35.49,43.56" />
				<path d="M35.74,43.52L35.72,43.52" />
				<path d="M36.19,46.59L36.24,46.56L36.36,46.56L36.49,46.60L36.48,46.63" />
				<path d="M36.24,46.61L36.22,46.61" />
				<path d="M72.37,141.79L72.46,141.78L72.59,141.83L72.69,141.89L72.70,141.92" />
				<path d="M73.38,140.53L73.44,140.38" />
				<path d="M74.53,143.77L74.17,143.78" />
				<path d="M74.54,140.67L74.52,140.58" />
				<path d="M87.62,26.05L87.63,26.01L87.72,25.98L87.85,26.03L87.97,26.18L87.92,26.25" />
				<path d="M89.73,28.89L89.72,28.84L89.54,28.80L89.41,28.81L89.37,28.85" />
				<path d="M89.46,28.90L89.44,28.90" />
				<path d="M88.67,25.01L88.66,25.03" />
				<path d="M89.75,25.67L89.73,25.60" />
				<path d="M124.93,30.16L124.97,30.14" />
				<path d="M124.98,30.11L124.93,30.07L124.81,30.04L124.64,30.07L124.63,30.12" />
				<path d="M126.28,27.64L126.23,27.56L126.24,27.51L126.39,27.39L126.46,27.38L126.55,27.42L126.56,27.52" />
				<path d="M125.63,26.42L125.59,26.37" />
				<path d="M125.87,26.07L125.97,26.20" />
				<path d="M137.32,162.85L137.38,162.77" />
				<path d="M137.93,165.13L137.98,165.16L138.16,165.19" />
				<path d="M154.98,42.11L154.95,42.08L154.84,42.06L154.69,42.08L154.67,42.12" />
				<path d="M154.90,42.15L154.95,42.13" />
				<path d="M154.97,39.36L155.00,39.45" />
				<path d="M155.40,38.87L155.35,38.87" />
				<path d="M156.21,40.02L156.18,39.96L156.28,39.84L156.39,39.81L156.47,39.84L156.47,39.87" />
				<path d="M155.81,38.65L155.87,38.72" />
			</g>
			<g style="stroke:#000000;stroke-width:0.529">
				<path
					d="M23.83,137.28L23.98,137.35L24.09,137.33L24.70,136.24L24.85,136.07L25.02,136.01L25.12,136.00L25.30,136.07L25.41,136.22L25.44,136.39L25.44,138.82L25.46,138.87L25.54,138.90L25.71,138.89L25.80,138.83L25.81,136.28L25.76,136.10L25.67,135.95L25.52,135.80L25.37,135.71L25.19,135.67L25.00,135.67L24.81,135.72L24.61,135.83L24.47,135.96L24.37,136.10L23.78,137.17L23.78,137.24L23.83,137.28" />
				<path
					d="M34.53,44.48L34.68,44.58L34.77,44.59L34.82,44.57L35.43,43.64L35.54,43.54L35.64,43.52L35.80,43.54L36.00,43.68L36.13,43.89L36.16,44.05L36.15,46.52L36.19,46.59L36.30,46.64L36.48,46.63L36.53,46.56L36.52,43.99L36.48,43.80L36.39,43.62L36.27,43.46L36.12,43.33L35.95,43.23L35.76,43.18L35.54,43.17L35.37,43.21L35.22,43.30L35.10,43.44L34.51,44.35L34.53,44.48" />
				<path
					d="M72.61,141.92L72.44,141.86L72.37,141.79L72.38,141.71L73.09,140.19L73.24,140.03L73.42,139.91L73.67,139.83L73.86,139.82L74.05,139.87L74.27,140.01L74.40,140.16L74.49,140.35L74.54,140.56L74.56,143.69L74.53,143.77L74.41,143.81L74.26,143.81L74.17,143.78L74.13,143.70L74.12,140.69L74.08,140.50L73.95,140.29L73.80,140.23L73.69,140.24L73.53,140.32L73.44,140.42L72.76,141.87L72.70,141.92L72.61,141.92" />
				<path
					d="M87.68,26.17L87.61,26.02L87.63,25.94L88.23,24.85L88.37,24.68L88.52,24.58L88.69,24.53L88.95,24.56L89.14,24.64L89.32,24.77L89.48,24.94L89.61,25.15L89.70,25.39L89.75,25.73L89.77,28.79L89.73,28.89L89.57,28.93L89.49,28.91L89.39,28.88L89.34,28.78L89.32,25.67L89.29,25.48L89.15,25.21L88.95,25.02L88.84,24.98L88.71,25.00L88.61,25.10L88.01,26.19L87.95,26.24L87.87,26.26L87.68,26.17" />
				<path
					d="M124.59,30.02L124.61,27.02L124.66,26.68L124.84,26.29L125.00,26.10L125.16,25.99L125.33,25.92L125.58,25.91L125.74,25.96L125.93,26.13L126.01,26.25L126.55,27.35L126.56,27.49L126.52,27.56L126.40,27.64L126.28,27.64L126.21,27.60L125.63,26.42L125.57,26.37L125.46,26.34L125.36,26.38L125.18,26.55L125.05,26.82L125.03,26.96L125.01,30.04L124.97,30.14L124.80,30.17L124.63,30.12L124.59,30.02" />
				<path d="M125.52,26.35L125.55,26.34" />
				<path
					d="M136.09,164.90L135.95,164.94L135.83,164.88L135.77,164.78L135.76,164.70L135.79,164.63L137.39,162.75L137.59,162.62L137.76,162.58L137.99,162.61L138.15,162.68L138.30,162.80L138.42,162.97L138.52,163.16L138.57,163.38L138.59,163.60L138.27,165.15L138.21,165.19L138.08,165.19L137.98,165.16L137.90,165.06L138.20,163.58L138.19,163.44L138.10,163.20L138.02,163.10L137.85,162.99L137.71,163.01L137.64,163.05L136.09,164.90" />
				<path
					d="M154.64,41.55L154.65,42.09L154.70,42.13L154.81,42.16L154.95,42.13L155.00,42.05L155.00,39.37L155.07,39.14L155.22,38.95L155.40,38.87L155.53,38.89L155.60,38.95L156.14,39.96L156.19,40.01L156.26,40.03L156.37,39.99L156.47,39.87L156.46,39.77L155.94,38.80L155.81,38.65L155.69,38.55L155.54,38.50L155.32,38.50L155.16,38.55L155.00,38.65L154.87,38.79L154.68,39.15L154.64,39.43L154.64,41.55" />
			</g>
		</g>
		<g id="Actor_26.0">
			<g style="stroke:#000000;stroke-width:0.176">
				<path d="M110.31,188.87L110.65,188.95L122.22,190.02L122.22,190.32" />
				<path d="M122.22,190.02L122.56,189.92" />
				<path d="M129.83,187.58L129.58,187.66" />
			</g>
			<g style="stroke:#000000;stroke-width:0.529">
				<path
					d="M110.31,189.16L110.65,189.24L122.22,190.32L122.56,190.21L122.56,189.92L113.78,187.83L110.31,188.87L110.31,189.16" />
				<path d="M129.58,187.46L129.83,187.58L129.83,187.87L129.58,187.95" />
			</g>
		</g>
		<g id="Actor_28.0">
			<g style="stroke:#000000;stroke-width:0.176" />
			<g style="stroke:#000000;stroke-width:0.529">
				<path
					d="M122.83,190.10L127.54,188.58L127.78,188.47L127.96,188.26L128.08,187.96L128.13,187.62L128.09,187.25L127.97,186.91L127.79,186.61L127.55,186.40L127.30,186.28L127.04,186.28L122.85,187.59" />
			</g>
		</g>
		<g id="Actor_22.0">
			<g style="stroke:#000000;stroke-width:0.176">
				<path d="M105.04,159.28L108.30,162.58L108.28,162.64" />
				<path d="M108.71,162.88L108.77,162.74L108.30,162.58" />
				<path d="M108.77,162.74L112.76,161.99" />
				<path d="M168.06,151.60L165.75,152.04L165.70,152.14" />
				<path d="M165.75,152.04L165.08,149.04" />
			</g>
			<g style="stroke:#000000;stroke-width:0.529">
				<path d="M112.70,162.13L112.76,161.99L105.04,159.28L104.99,159.40" />
				<path d="M165.62,152.16L164.97,149.26L165.08,149.04L168.02,151.42L168.06,151.60L168.00,151.71" />
			</g>
		</g>
		<g id="Actor_17.0">
			<g style="stroke:#000000;stroke-width:0.529">
				<path d="M34.45,148.10L31.23,148.49" />
				<path d="M31.23,146.34L34.31,145.99" />
				<path d="M40.50,52.28L37.60,51.72" />
				<path d="M40.78,50.15L37.60,49.52" />
				<path d="M65.80,152.47L62.64,152.94" />
				<path d="M65.57,150.05L62.63,150.46" />
				<path d="M72.74,42.56L70.10,41.90" />
				<path d="M73.22,40.13L70.09,39.32" />
			</g>
		</g>
		<g id="Actor_20.0">
			<g style="stroke:#000000;stroke-width:0.176">
				<path d="M15.17,148.68L15.24,146.25L14.30,146.12" />
				<path d="M14.40,127.67L15.33,127.72L15.27,130.13" />
				<path d="M15.35,148.06L15.34,148.45" />
				<path d="M15.24,146.25L15.36,146.24" />
				<path d="M15.40,146.36L15.40,146.25" />
				<path d="M15.44,130.00L15.43,130.04" />
				<path d="M14.69,127.69L16.52,127.62" />
				<path d="M15.33,127.72L15.50,127.71L14.73,127.68" />
				<path d="M15.50,127.71L15.50,127.78" />
				<path d="M16.50,65.56L16.48,65.54L16.59,65.62L18.28,65.89" />
				<path d="M16.48,65.54L16.98,64.37" />
				<path d="M17.07,64.16L16.91,64.13L16.21,65.69" />
				<path d="M16.16,62.69L16.91,64.13" />
				<path d="M79.91,125.90L79.91,125.87L79.01,125.85L77.67,125.88" />
				<path d="M79.91,125.87L80.01,125.87" />
				<path d="M105.10,37.38L107.08,36.82L109.20,37.55" />
				<path d="M104.91,11.35L106.88,10.61L109.00,11.57" />
				<path d="M106.22,167.49L107.98,165.23L110.15,164.80" />
				<path d="M107.98,165.23L106.55,162.88" />
				<path d="M107.08,36.82L107.11,33.41" />
				<path d="M106.88,10.61L106.91,7.23" />
				<path d="M167.36,54.87L167.37,57.43L167.22,57.45L168.25,57.81L168.17,57.85L166.67,58.11" />
				<path d="M168.29,153.93L169.16,152.98L169.26,153.11L167.70,154.84" />
				<path d="M167.37,57.43L168.56,57.83" />
				<path d="M167.22,57.45L167.22,55.48" />
				<path d="M168.71,38.52L167.53,37.99L167.52,35.46" />
				<path d="M168.41,38.50L167.39,38.02L167.53,37.99" />
				<path d="M167.39,38.02L167.38,36.25" />
				<path d="M169.06,151.21L170.20,152.70L170.17,152.78L169.16,152.98" />
				<path d="M169.26,153.11L170.46,152.88" />
			</g>
			<g style="stroke:#000000;stroke-width:0.529">
				<path d="M15.34,148.45L15.34,148.67L15.17,148.68L14.24,148.54L14.30,146.12L14.56,146.10" />
				<path d="M16.52,127.62L14.40,127.67L14.33,130.08L15.27,130.13L15.43,130.13L15.43,130.04" />
				<path
					d="M18.25,65.84L18.28,65.89L18.22,66.01L16.21,65.69L15.47,64.25L16.16,62.69L16.33,62.72L16.37,62.81" />
				<path d="M16.99,64.01L17.07,64.16L16.98,64.37" />
				<path d="M80.01,125.90L80.01,125.87L79.01,125.84L77.67,125.89" />
				<path
					d="M105.35,166.04L104.81,165.14L106.55,162.88L106.72,162.85L108.00,164.91L108.11,164.97L108.21,164.97L110.04,164.62L110.15,164.80L108.40,167.04L106.22,167.49L105.35,166.04" />
				<path
					d="M105.27,37.44L105.10,37.38L105.13,34.00L107.11,33.41L109.23,34.17L109.20,37.55L109.04,37.59L107.26,36.98L107.03,36.95L105.27,37.44" />
				<path
					d="M106.81,10.79L105.08,11.43L104.91,11.35L104.94,8.00L106.91,7.23L109.02,8.22L109.00,11.57L108.84,11.63L107.06,10.82L106.83,10.79" />
				<path d="M166.67,58.11L166.77,58.15L168.56,57.83L168.55,55.29L167.36,54.87L167.21,54.90L167.22,55.48" />
				<path
					d="M168.97,151.32L169.06,151.21L169.16,151.19L170.46,152.88L168.91,154.59L167.70,154.84L167.60,154.70L168.29,153.93" />
				<path d="M168.41,38.59L168.71,38.52L168.70,36.00L167.52,35.46L167.38,35.49L167.38,36.25" />
			</g>
		</g>
		<g id="Actor_18.0">
			<g style="stroke:#000000;stroke-width:0.176">
				<path d="M34.43,148.13L34.26,148.18L34.14,148.14" />
				<path d="M34.00,146.03L34.09,145.97L34.29,145.98" />
				<path d="M35.05,144.45L34.79,144.47L33.66,144.33" />
				<path d="M37.09,150.15L34.79,144.47" />
				<path d="M37.60,54.68L43.47,52.95L43.72,53.00" />
				<path d="M40.21,52.23L40.37,52.30L40.47,52.28" />
				<path d="M40.77,50.14L40.71,50.10L40.54,50.08L40.50,50.09" />
				<path d="M41.09,48.36L43.47,52.95" />
				<path d="M66.47,148.29L66.20,148.33L64.71,148.14" />
				<path d="M65.74,152.51L65.53,152.57L65.38,152.53" />
				<path d="M65.49,150.03L65.30,150.03L65.14,150.11" />
				<path d="M66.20,148.33L69.27,154.90" />
				<path d="M69.00,45.44L76.73,43.17L76.99,43.24" />
				<path d="M72.67,42.57L72.63,42.58L72.41,42.51L72.38,42.47" />
				<path d="M72.84,40.03L73.08,40.05L73.16,40.10" />
				<path d="M73.56,38.03L76.73,43.17" />
			</g>
			<g style="stroke:#000000;stroke-width:0.529">
				<path
					d="M32.84,146.16L33.66,144.33L33.91,144.31L35.05,144.45L37.35,150.12L37.09,150.15L31.41,149.32L31.82,148.42" />
				<path
					d="M34.26,146.00L34.29,145.98L34.43,146.06L34.57,146.24L34.69,146.50L34.72,146.61L34.76,146.81L34.79,147.14L34.76,147.47L34.69,147.76L34.57,147.98L34.43,148.12L34.40,148.11" />
				<path
					d="M38.67,51.92L37.60,54.68L37.85,54.72L43.72,53.00L41.34,48.41L41.09,48.36L39.91,48.73L39.47,49.89" />
				<path
					d="M40.46,52.27L40.54,52.27L40.71,52.14L40.86,51.93L40.98,51.66L41.06,51.34L41.09,51.01L41.06,50.69L40.98,50.42L40.86,50.21L40.75,50.14" />
				<path d="M63.59,150.33L64.71,148.14L64.98,148.11L66.47,148.29L69.53,154.86L69.27,154.90L62.64,153.93" />
				<path
					d="M65.40,150.08L65.52,150.03L65.74,150.14L65.93,150.35L66.08,150.65L66.18,151.01L66.21,151.39L66.18,151.76L66.09,152.09L65.94,152.35L65.74,152.51L65.65,152.49" />
				<path
					d="M71.51,39.69L72.01,38.52L73.56,38.03L73.82,38.10L76.99,43.24L69.26,45.50L69.00,45.44L70.50,42.00" />
				<path
					d="M72.64,42.54L72.67,42.57L72.85,42.54L73.08,42.39L73.28,42.14L73.41,41.88L73.54,41.45L73.57,41.06L73.53,40.70L73.43,40.39L73.27,40.17L73.16,40.10L73.09,40.10" />
			</g>
		</g>
		<g id="Actor_21.0">
			<g style="stroke:#000000;stroke-width:0.176">
				<path d="M28.05,84.19L28.63,82.99L28.66,82.99" />
				<path d="M28.63,82.99L28.17,82.10" />
				<path d="M34.38,95.78L35.00,94.57L34.97,94.52" />
				<path d="M78.88,204.95L80.31,203.13L79.44,201.38" />
				<path d="M80.45,203.08L80.31,203.13" />
				<path d="M89.51,188.15L90.45,189.90L88.91,191.86" />
				<path d="M90.45,189.90L90.58,189.86" />
				<path d="M139.76,185.16L141.10,183.67L141.18,183.65" />
				<path d="M141.10,183.67L140.25,182.38" />
				<path d="M150.07,171.61L150.96,172.90L149.55,174.47" />
				<path d="M150.96,172.90L151.04,172.88" />
			</g>
			<g style="stroke:#000000;stroke-width:0.529">
				<path d="M27.79,81.42L27.22,82.60L28.05,84.19L28.17,84.20L28.71,83.10" />
				<path d="M34.09,92.91L33.49,94.08L34.38,95.78L34.50,95.79L35.06,94.69" />
				<path
					d="M78.04,203.26L78.88,204.95L79.01,204.91L80.45,203.08L79.57,201.34L79.44,201.38L78.02,203.21L78.04,203.26" />
				<path
					d="M88.40,190.91L87.98,190.11L89.51,188.15L89.64,188.11L90.58,189.86L89.04,191.83L88.91,191.86L88.40,190.91" />
				<path d="M139.73,185.11L139.76,185.16L139.84,185.13L141.18,183.65L140.33,182.36L140.24,182.40" />
				<path d="M149.51,174.42L149.55,174.47L149.63,174.45L151.04,172.88L150.14,171.59L150.05,171.63" />
			</g>
		</g>
		<g id="Actor_19.0">
			<g style="stroke:#000000;stroke-width:0.176">
				<path d="M97.48,139.80L99.12,139.92L99.28,139.92" />
				<path d="M99.05,142.41L99.12,139.92" />
				<path d="M128.61,142.22L130.64,142.38L130.59,145.14" />
				<path d="M130.64,142.38L130.80,142.37" />
			</g>
			<g style="stroke:#000000;stroke-width:0.529">
				<path d="M97.41,142.26L97.48,139.80L97.64,139.79L99.28,139.92L99.21,142.39L99.05,142.41L97.41,142.26" />
				<path
					d="M128.55,144.97L128.61,142.22L128.76,142.21L130.80,142.37L130.74,145.13L130.59,145.14L128.55,144.97" />
			</g>
		</g>
		<g id="Actor_23.0">
			<g style="stroke:#000000;stroke-width:0.176">
				<path d="M164.83,149.34L165.44,152.08L165.37,152.20" />
				<path d="M165.44,152.08L165.61,152.13" />
			</g>
			<g style="stroke:#000000;stroke-width:0.529">
				<path d="M165.59,152.16L165.61,152.13L165.00,149.39L164.83,149.34L163.75,152.51" />
			</g>
		</g>
		<g id="Actor_25.0">
			<g style="stroke:#000000;stroke-width:0.176">
				<path d="M106.72,193.05L113.55,184.86L113.48,184.74" />
				<path d="M113.55,184.86L127.40,180.89" />
			</g>
			<g style="stroke:#000000;stroke-width:0.529">
				<path d="M113.25,184.81L106.58,192.81L106.72,193.05L110.34,191.92" />
				<path d="M127.33,180.77L127.40,180.89L126.16,182.32" />
			</g>
		</g>
		<g id="Actor_27.0">
			<g style="stroke:#000000;stroke-width:0.176">
				<path d="M122.82,192.49L122.62,192.56L122.64,187.60L120.89,184.74L117.09,183.89" />
				<path d="M120.84,194.59L122.62,192.56" />
				<path d="M120.89,184.74L121.10,184.68" />
				<path d="M122.64,187.60L122.85,187.54L121.28,184.98" />
				<path d="M122.83,191.13L122.85,187.54" />
				<path d="M129.59,185.44L129.40,185.50L127.66,182.74L123.88,181.94" />
				<path d="M127.62,192.29L129.38,190.31L129.57,190.24" />
				<path d="M127.66,182.74L127.85,182.68" />
				<path d="M129.38,190.31L129.40,185.50" />
			</g>
			<g style="stroke:#000000;stroke-width:0.529">
				<path
					d="M113.78,187.83L117.09,183.89L117.29,183.84L121.10,184.68L121.28,184.98L123.88,181.94L124.07,181.89L127.85,182.68L129.59,185.44L129.57,190.24L127.81,192.22L127.62,192.29L122.83,191.13L122.82,192.49L121.04,194.52L120.84,194.59L110.34,191.92L112.45,189.41" />
			</g>
		</g>
		<g id="Actor_1.0">
			<g style="stroke:#000000;stroke-width:0.176">
				<path d="M92.78,91.17L92.80,91.17L92.63,91.15L36.21,96.79" />
				<path d="M76.06,205.54L96.73,178.40L96.60,161.37" />
				<path d="M138.18,128.05L78.70,126.22" />
				<path d="M92.63,91.15L107.23,38.51L107.22,37.89" />
				<path d="M92.80,91.17L103.93,51.05" />
				<path d="M96.73,178.40L96.90,178.35" />
				<path d="M96.57,156.78L96.57,157.46" />
				<path d="M138.08,128.05L157.32,143.43L157.42,143.42" />
				<path d="M146.68,175.23L140.16,182.39" />
				<path d="M157.18,163.79L157.08,163.81L149.97,171.62" />
				<path d="M151.70,97.49L151.57,97.48" />
				<path d="M151.59,97.48L165.82,58.13L165.83,57.67" />
				<path d="M157.32,143.43L157.20,153.75" />
				<path d="M166.01,38.31L165.86,54.48" />
			</g>
			<g style="stroke:#000000;stroke-width:0.529">
				<path d="M96.90,178.31L96.90,178.35L76.24,205.48L76.06,205.54L24.66,187.93L16.88,148.89" />
				<path d="M36.21,96.79L23.65,73.86L23.69,61.36" />
				<path d="M23.70,57.05L23.69,58.33" />
				<path d="M157.42,143.45L157.42,143.42L138.18,128.05L78.70,126.22" />
				<path d="M107.39,37.95L107.39,38.58L103.93,51.05" />
				<path d="M146.79,175.20L140.23,182.40" />
				<path d="M157.18,163.75L150.04,171.62" />
				<path d="M151.69,97.49L165.92,58.17L165.92,57.71" />
				<path d="M166.11,38.35L165.95,54.51" />
			</g>
		</g>
		<g id="Actor_6.0">
			<g style="stroke:#000000;stroke-width:0.176">
				<path d="M24.66,187.93L76.07,205.54L78.74,204.68" />
				<path d="M104.92,92.47L104.92,92.68L48.23,97.80" />
				<path d="M61.48,97.25L61.87,97.23L61.27,97.18L61.06,97.19L60.98,97.22L61.48,97.25" />
				<path d="M60.98,97.22L60.98,97.19" />
				<path d="M76.07,205.54L76.07,205.75" />
				<path d="M94.37,99.70L94.87,99.71L95.07,99.70L94.77,99.66L94.30,99.69L94.37,99.70" />
				<path
					d="M94.55,97.33L94.91,97.35L95.33,97.33L95.18,97.30L94.89,97.28L94.61,97.29L94.47,97.32L94.55,97.33" />
				<path
					d="M94.78,94.28L95.19,94.30L95.68,94.27L95.50,94.23L95.26,94.22L94.85,94.22L94.69,94.25L94.78,94.28" />
				<path d="M104.92,92.68L151.69,97.66" />
				<path d="M127.70,97.43L127.65,97.41L128.02,97.38L128.39,97.39L128.49,97.43L128.23,97.45L127.70,97.43" />
			</g>
			<g style="stroke:#000000;stroke-width:0.529">
				<path d="M24.65,187.93L24.66,188.11L76.07,205.75L78.83,204.86" />
				<path d="M48.23,97.80L96.35,101.11L151.69,97.66L151.69,97.49L104.84,92.48" />
			</g>
		</g>
		<g id="Actor_9.0">
			<g style="stroke:#000000;stroke-width:0.176">
				<path d="M101.92,162.20L101.80,162.16L15.34,148.63" />
				<path d="M15.41,146.32L29.24,148.32" />
				<path d="M18.63,62.12L105.58,37.37L105.69,37.48L107.05,37.90L107.14,37.89" />
				<path d="M20.55,59.27L37.80,54.16" />
				<path d="M20.68,59.23L20.64,59.23" />
				<path d="M31.23,148.60L31.70,148.67" />
				<path d="M60.07,152.77L37.08,149.45" />
				<path d="M69.26,44.85L43.46,52.49" />
				<path d="M101.80,162.16L101.55,161.97L98.04,158.43L97.90,158.23L69.17,154.08" />
				<path d="M105.13,34.23L76.64,42.67" />
				<path d="M98.07,158.29L98.13,158.41L101.08,161.39L101.15,161.40" />
				<path d="M97.90,158.23L97.92,158.14" />
				<path d="M101.79,162.05L101.64,161.95L101.08,161.39" />
				<path d="M105.67,37.35L105.93,37.44" />
				<path d="M165.92,57.71L166.02,57.78L166.78,58.07L166.83,58.07" />
				<path d="M166.65,57.94L166.78,57.99" />
			</g>
			<g style="stroke:#000000;stroke-width:0.529">
				<path d="M101.94,162.21L15.34,148.65" />
				<path d="M29.24,147.88L16.97,146.13" />
				<path
					d="M37.81,54.15L20.64,59.23L20.47,59.33L20.41,59.40L18.68,61.97L18.63,62.12L18.71,62.19L20.07,62.38L107.16,37.87" />
				<path d="M36.88,148.97L60.07,152.27" />
				<path d="M69.27,44.83L43.45,52.48" />
				<path d="M97.35,157.57L68.91,153.52" />
				<path d="M105.13,34.21L76.63,42.65" />
				<path d="M166.87,58.02L166.83,58.07L165.90,58.23" />
			</g>
		</g>
		<g id="Actor_5.0">
			<g style="stroke:#000000;stroke-width:0.176">
				<path d="M36.20,96.97L92.63,91.37L104.84,92.67" />
				<path d="M92.63,91.37L92.63,91.15" />
			</g>
			<g style="stroke:#000000;stroke-width:0.529">
				<path
					d="M36.98,96.72L36.21,96.79L36.20,96.97L48.16,97.79L104.84,92.67L104.84,92.46L92.63,91.15L36.98,96.72" />
			</g>
		</g>
		<g id="Actor_2.0">
			<g style="stroke:#000000;stroke-width:0.176">
				<path d="M23.67,61.37L23.63,73.82" />
				<path d="M23.68,57.09L23.67,58.33" />
				<path d="M96.76,178.35L105.70,166.62" />
				<path d="M157.11,163.77L164.93,155.18" />
				<path d="M164.81,149.42L157.35,143.46" />
			</g>
			<g style="stroke:#000000;stroke-width:0.529">
				<path d="M23.65,73.82L18.58,64.59" />
				<path d="M105.76,166.72L96.94,178.30L96.76,178.35L96.64,161.38" />
				<path d="M96.61,156.82L96.61,157.46" />
				<path d="M157.11,163.77L157.21,163.75L165.03,155.16" />
				<path d="M157.23,153.74L157.35,143.46L157.45,143.45L164.83,149.35" />
			</g>
		</g>
		<g id="Actor_7.0">
			<g style="stroke:#000000;stroke-width:0.176">
				<path d="M73.67,133.68L73.64,133.65L73.50,133.64L15.43,130.10" />
				<path d="M15.48,127.80L74.11,130.67" />
				<path d="M16.81,127.67L16.79,127.67" />
				<path d="M34.60,35.53L104.94,8.24" />
				<path d="M34.94,37.84L104.62,11.61" />
				<path
					d="M73.64,133.65L73.61,133.61L73.62,133.45L74.04,130.82L74.07,130.72L74.14,130.64L74.25,130.60L75.65,130.49" />
				<path d="M78.80,125.94L138.29,127.70" />
				<path d="M139.20,127.65L138.38,127.65L138.27,127.74L138.19,128.06" />
			</g>
			<g style="stroke:#000000;stroke-width:0.529">
				<path d="M75.76,130.55L75.65,130.49L16.79,127.67L15.50,127.73" />
				<path d="M73.67,133.70L15.85,130.17" />
				<path
					d="M40.12,36.87L36.47,38.23L36.39,38.23L35.06,37.92L34.98,37.88L34.91,37.80L34.87,37.72L34.57,35.63L34.58,35.55L34.63,35.50L104.94,8.23" />
				<path d="M72.15,24.95L43.00,35.80" />
				<path d="M104.63,12.87L75.48,23.71" />
				<path d="M139.25,127.68L139.20,127.65L79.73,125.90L78.82,125.91L78.76,126.03L78.75,126.22" />
			</g>
		</g>
		<g id="Actor_3.0">
			<g style="stroke:#000000;stroke-width:0.176">
				<path d="M78.70,126.22L21.85,127.91" />
				<path d="M92.80,91.17L107.38,38.62L107.39,37.93" />
				<path d="M165.82,58.12L107.40,38.55" />
			</g>
			<g style="stroke:#000000;stroke-width:0.529">
				<path d="M78.47,133.22L78.70,126.22L78.68,126.22L21.79,127.91" />
				<path d="M165.83,57.67L165.80,58.17L151.59,97.48L92.80,91.17" />
				<path d="M166.01,38.31L165.86,54.48" />
			</g>
		</g>
		<g id="Actor_4.0">
			<g style="stroke:#000000;stroke-width:0.176">
				<path d="M76.20,205.50L105.77,166.73" />
			</g>
			<g style="stroke:#000000;stroke-width:0.529">
				<path d="M76.20,205.50L78.74,204.68" />
				<path d="M146.71,175.22L140.19,182.39" />
				<path d="M164.92,155.18L149.98,171.62" />
			</g>
		</g>
		<g id="Actor_10.0">
			<g style="stroke:#000000;stroke-width:0.176">
				<path d="M15.33,127.72L14.71,127.68" />
				<path d="M78.79,125.94L17.43,127.70" />
				<path d="M105.47,11.28L106.72,10.81" />
				<path d="M167.39,38.00L108.87,11.61" />
				<path d="M109.02,8.46L167.38,35.57" />
			</g>
			<g style="stroke:#000000;stroke-width:0.529">
				<path d="M79.75,125.90L79.71,125.87L79.06,125.85L14.69,127.69" />
				<path d="M139.92,26.68L108.48,12.66" />
				<path d="M109.02,8.45L167.38,35.56" />
				<path d="M166.18,38.38L143.09,28.09" />
			</g>
		</g>
		<g id="Actor_8.0">
			<g style="stroke:#000000;stroke-width:0.176">
				<path d="M18.66,62.00L17.04,64.41" />
				<path d="M20.06,62.39L18.55,64.62" />
				<path d="M34.94,37.85L20.43,59.37" />
				<path d="M22.61,58.65L36.49,38.22" />
				<path d="M34.58,35.56L34.88,37.72L34.91,37.81L35.07,37.92L36.47,38.23" />
				<path d="M73.64,133.66L104.83,165.10" />
				<path d="M73.66,133.69L73.69,133.70" />
				<path d="M106.53,162.90L74.12,130.68" />
				<path d="M108.50,162.87L108.42,162.85L106.93,163.19" />
				<path d="M108.41,162.95L108.36,162.93L107.59,163.10" />
				<path d="M165.07,149.06L138.30,127.71" />
				<path d="M139.24,127.67L139.25,127.70" />
				<path d="M167.19,150.75L168.28,151.62L168.21,151.68" />
				<path d="M168.28,151.62L168.38,151.57L169.15,151.46L169.18,151.49" />
				<path d="M168.65,151.59L168.33,151.63L168.26,151.67" />
			</g>
			<g style="stroke:#000000;stroke-width:0.529">
				<path d="M34.63,35.51L16.36,62.82" />
				<path d="M16.98,64.36L17.17,64.45L18.53,64.63L20.09,62.37" />
				<path d="M22.62,58.65L36.50,38.21" />
				<path
					d="M104.83,165.11L73.66,133.68L73.61,133.62L73.61,133.52L74.04,130.82L74.08,130.72L74.15,130.64L74.25,130.60L75.65,130.50L75.73,130.52L108.49,162.85L108.49,162.93" />
				<path d="M169.18,151.49L139.24,127.67L138.38,127.66L138.27,127.74L138.19,128.06" />
			</g>
		</g>
		<g id="Actor_13.0">
			<g style="stroke:#000000;stroke-width:0.176">
				<path d="M29.35,84.26L28.21,84.13" />
				<path d="M28.23,84.08L28.71,83.10" />
				<path d="M90.48,190.00L89.14,191.70" />
				<path d="M150.02,171.62L89.59,188.12L89.55,188.11" />
				<path d="M150.90,172.89L90.56,189.83" />
				<path d="M90.48,189.68L89.66,188.17" />
			</g>
			<g style="stroke:#000000;stroke-width:0.529">
				<path d="M29.35,84.26L28.20,84.14" />
				<path
					d="M89.12,191.72L149.58,174.40L149.64,174.36L150.87,173.01L150.90,172.94L150.90,172.85L150.87,172.77L150.11,171.68L150.05,171.63L149.98,171.62L89.55,188.11L89.49,188.15L88.14,189.90" />
			</g>
		</g>
		<g id="Actor_12.0">
			<g style="stroke:#000000;stroke-width:0.176">
				<path d="M19.35,65.99L16.48,65.53" />
				<path d="M16.48,65.47L16.93,64.47" />
				<path d="M18.60,64.62L18.57,64.62" />
				<path d="M107.92,164.82L107.01,163.32" />
				<path d="M106.95,163.23L169.20,151.49" />
				<path d="M170.17,152.76L108.12,164.97" />
			</g>
			<g style="stroke:#000000;stroke-width:0.529">
				<path d="M19.35,66.00L16.48,65.54" />
				<path d="M170.16,152.63L169.32,151.55L169.25,151.49L169.18,151.49L106.99,163.20" />
				<path d="M106.94,163.21L106.97,163.21" />
				<path d="M108.68,166.68L167.68,154.62" />
			</g>
		</g>
		<g id="Actor_14.0">
			<g style="stroke:#000000;stroke-width:0.176">
				<path d="M34.54,95.72L35.67,95.80" />
				<path d="M34.57,95.66L35.06,94.69" />
				<path d="M79.11,204.79L80.36,203.19" />
				<path d="M106.62,192.88L79.53,201.35L79.49,201.34" />
				<path d="M113.06,192.61L80.43,203.05" />
				<path d="M80.35,202.90L79.62,201.43" />
				<path d="M141.04,183.66L129.58,187.33" />
				<path d="M140.21,182.39L129.59,185.71" />
			</g>
			<g style="stroke:#000000;stroke-width:0.529">
				<path d="M35.67,95.80L34.54,95.72" />
				<path d="M106.61,192.87L79.49,201.34L79.43,201.37L78.18,203.01" />
				<path d="M79.09,204.81L115.06,193.12" />
				<path
					d="M129.59,185.69L140.17,182.38L140.24,182.40L140.30,182.45L141.01,183.54L141.04,183.62L141.04,183.70L141.01,183.77L139.85,185.06L139.79,185.09L129.58,188.41" />
			</g>
		</g>
		<g id="Actor_11.0">
			<g style="stroke:#000000;stroke-width:0.176">
				<path d="M105.66,37.33L106.93,36.97" />
				<path d="M167.22,57.42L109.11,37.57" />
				<path d="M167.21,54.97L109.23,34.37" />
				<path d="M166.94,58.02L166.96,58.04" />
			</g>
			<g style="stroke:#000000;stroke-width:0.529">
				<path d="M105.63,37.34L166.96,58.04L167.03,58.05L168.17,57.85" />
				<path d="M167.21,54.96L109.23,34.35" />
			</g>
		</g>
		<g />
		<g />
		<g id="paperID" visibility="hidden" opacity="0.00" transform="scale(0.000100)">
			<path style="stroke:#000000;stroke-width:0.500;fill:#e6e6e6;fill-rule:evenodd"
				d="M-2000.00,-2000.00L2297.00,-2000.00L2297.00,2210.00L-2000.00,2210.00zM0.00,0.00L297.00,0.00L297.00,210.00L0.00,210.00z" />
			<path style="fill:#000000;fill-opacity:0.118"
				d="M3.00,210.00L297.00,210.00L297.00,3.00L300.00,3.00L300.00,213.00L3.00,213.00z" />
		</g>




		<g id="hotspot.0" ident="" onmouseover="ShowHotSpot(evt,&apos;0&apos;)"
			onmouseout="HideHotSpot(evt,&apos;0&apos;)" onmousemove="ShowToolTip(evt,&apos;0&apos;,&quot;24&quot;)"
			opacity="0">
			<path style="fill:#00ff00;fill-rule:evenodd"
				d="M151.63,97.24L150.12,97.52L96.67,100.87L48.50,97.52L103.92,92.51L107.35,92.51z" />
		</g>
		<g id="hotspot.1" ident="" onmouseover="ShowHotSpot(evt,&apos;1&apos;)"
			onmouseout="HideHotSpot(evt,&apos;1&apos;)" onmousemove="ShowToolTip(evt,&apos;1&apos;,&quot;23&quot;)"
			opacity="0">
			<path style="fill:#00ff00;fill-rule:evenodd"
				d="M104.87,92.23L103.92,92.52L48.51,97.53L36.26,96.68L90.56,91.12L94.54,91.12z" />
		</g>
		<g id="hotspot.2" ident="" onmouseover="ShowHotSpot(evt,&apos;2&apos;)"
			onmouseout="HideHotSpot(evt,&apos;2&apos;)" onmousemove="ShowToolTip(evt,&apos;2&apos;,&quot;0&quot;)"
			opacity="0">
			<path style="fill:#00ff00;fill-rule:evenodd"
				d="M104.85,34.15L77.77,42.14L76.45,42.13L75.88,41.31L75.62,32.94L75.53,23.48L103.93,12.86L104.56,12.87zM69.79,37.06L67.99,37.37L67.53,38.02L67.54,42.98L68.57,42.97L70.08,42.41L69.99,42.95L69.12,44.62L45.76,51.61L43.33,52.17L43.24,35.45L72.03,24.88L72.01,38.33L71.47,39.40L70.23,39.16L70.09,37.36zM37.82,49.30L37.49,47.67L36.55,47.67L35.82,48.06L35.73,52.82L37.22,52.53L37.68,51.58L38.03,51.54L38.57,51.85L37.74,53.89L23.83,58.09L23.82,56.66L36.55,37.94L39.99,36.81L39.99,48.34L39.63,49.37L38.00,49.40zM23.84,61.14L107.39,37.69L107.35,38.59L92.88,90.93L37.67,96.40L36.09,96.40L23.86,74.12zM138.26,127.84L157.19,143.15L157.19,153.57L112.64,161.84L104.86,159.02L99.55,153.74L97.08,151.49L78.68,133.14L78.68,127.95L78.85,126.17L85.64,126.19zM23.01,130.36L33.88,131.18L33.88,144.10L32.66,145.95L31.26,146.04L31.08,145.12L30.54,144.81L29.40,144.91L29.15,147.44L27.18,147.34L17.43,145.96L17.34,130.07zM63.93,132.86L64.76,133.15L64.78,147.72L64.11,149.01L63.29,150.18L62.73,150.23L62.56,149.26L62.29,148.97L60.31,148.79L60.04,151.90L58.36,151.79L36.91,148.75L36.82,131.46L41.10,131.48zM73.12,133.42L73.95,133.70L75.09,134.79L76.47,136.46L96.54,156.53L96.50,157.19L68.85,153.28L68.36,152.09L68.29,133.12zM90.37,160.15L96.49,161.26L96.79,178.35L80.66,199.52L76.35,205.25L75.90,205.28L24.67,187.71L17.17,149.85L17.07,148.72zM89.55,24.85L89.81,28.61L89.47,28.62L89.28,25.10L88.98,24.80L88.63,24.85L87.87,26.10L87.84,25.22L88.61,24.27L88.98,24.27zM36.18,43.41L35.42,43.48L34.92,44.18L34.60,44.09L35.44,42.92L35.83,42.91zM36.37,46.41L36.18,43.41L36.37,43.51zM25.83,135.90L25.77,138.57L25.45,138.57L25.23,135.90L24.88,135.87L24.10,137.14L24.10,136.28L24.57,135.62L25.54,135.61zM99.29,139.81L99.28,141.31L98.99,142.14L97.59,142.06L97.59,139.54zM74.54,140.07L74.48,143.58L74.16,143.58L73.94,140.07L73.58,140.03L72.79,141.62L72.47,141.61L72.52,141.04L73.28,139.79L74.26,139.79zM130.73,142.34L130.73,144.96L128.68,144.66L128.68,142.04L129.90,142.05z" />
		</g>
		<g id="hotspot.3" ident="" onmouseover="ShowHotSpot(evt,&apos;3&apos;)"
			onmouseout="HideHotSpot(evt,&apos;3&apos;)" onmousemove="ShowToolTip(evt,&apos;3&apos;,&quot;11&quot;)"
			opacity="0">
			<path style="fill:#00ff00;fill-rule:evenodd"
				d="M23.57,58.08L23.00,58.38L23.01,57.85L23.59,57.16zM18.84,63.95L20.12,62.15L22.93,61.30L23.56,61.30L23.58,73.40L18.81,64.96zM164.73,149.00L164.71,149.65L164.06,151.53L163.52,152.39L160.23,153.00L157.35,153.29L157.37,143.41L157.71,143.39zM97.06,157.06L96.70,157.16L96.79,156.80zM102.07,162.08L104.31,164.29L105.44,165.96L105.72,166.64L97.03,178.06L96.77,173.23L96.69,161.23z" />
		</g>
		<g id="hotspot.4" ident="" onmouseover="ShowHotSpot(evt,&apos;4&apos;)"
			onmouseout="HideHotSpot(evt,&apos;4&apos;)" onmousemove="ShowToolTip(evt,&apos;4&apos;,&quot;25&quot;)"
			opacity="0">
			<path style="fill:#00ff00;fill-rule:evenodd"
				d="M104.84,11.31L104.56,12.71L76.38,23.21L73.29,23.18L72.19,23.76L71.92,24.87L43.24,35.48L40.71,35.42L40.19,35.73L39.98,36.64L36.56,37.98L34.96,37.69L34.56,35.42L42.13,32.39L104.50,8.12L104.84,8.14zM135.74,127.30L138.27,127.58L130.73,127.58L85.64,126.19L78.84,125.91L88.42,125.91zM48.89,128.97L74.21,130.33L73.93,131.27L73.67,133.54L15.39,129.91L15.48,127.66L19.95,127.58z" />
		</g>
		<g id="hotspot.5" ident="" onmouseover="ShowHotSpot(evt,&apos;5&apos;)"
			onmouseout="HideHotSpot(evt,&apos;5&apos;)" onmousemove="ShowToolTip(evt,&apos;5&apos;,&quot;26&quot;)"
			opacity="0">
			<path style="fill:#00ff00;fill-rule:evenodd"
				d="M34.71,35.94L34.96,37.69L36.12,37.96L36.13,38.59L22.71,58.33L20.44,59.13L18.98,61.30L18.71,61.97L19.95,62.14L18.75,64.12L17.08,64.20L16.49,62.44L34.46,35.69zM169.19,151.22L168.04,151.22L165.13,149.04L164.41,148.75L138.51,128.11L138.41,127.58L139.38,127.55zM76.20,130.89L78.40,132.87L97.08,151.49L99.55,153.74L108.50,162.65L107.23,162.96L106.68,162.65L105.01,164.61L104.59,164.61L76.47,136.46L75.09,134.79L73.95,133.70L73.93,131.27L74.38,130.33L75.64,130.34z" />
		</g>
		<g id="hotspot.6" ident="" onmouseover="ShowHotSpot(evt,&apos;6&apos;)"
			onmouseout="HideHotSpot(evt,&apos;6&apos;)" onmousemove="ShowToolTip(evt,&apos;6&apos;,&quot;6&quot;)"
			opacity="0">
			<path style="fill:#00ff00;fill-rule:evenodd"
				d="M108.46,11.23L108.46,33.61L107.10,33.23L105.12,33.88L104.84,32.95L104.84,11.31L106.42,10.64L107.06,10.65zM75.33,23.48L75.63,40.56L75.38,40.49L74.00,38.18L73.67,37.91L72.19,38.07L72.19,23.76L73.29,23.18L74.51,23.19zM142.98,26.82L143.01,46.10L139.83,45.00L139.92,32.47L140.11,26.54L140.64,26.24L141.88,26.25zM43.05,35.72L43.06,51.41L41.36,48.23L40.18,48.37L40.18,35.72L40.71,35.42L42.52,35.42zM168.31,38.23L168.34,55.02L166.07,54.38L166.08,45.55L166.27,38.23L167.76,37.91zM34.05,144.10L34.04,131.19L36.66,131.19L36.66,148.00L35.81,146.23L34.97,144.29zM14.57,145.76L14.64,130.71L14.85,130.09L17.18,130.07L17.16,145.76L16.54,145.97L14.90,145.98zM64.94,133.13L68.11,133.13L68.12,151.34L66.43,148.18L65.02,147.91z" />
		</g>
		<g id="hotspot.7" ident="" onmouseover="ShowHotSpot(evt,&apos;7&apos;)"
			onmouseout="HideHotSpot(evt,&apos;7&apos;)" onmousemove="ShowToolTip(evt,&apos;7&apos;,&quot;27&quot;)"
			opacity="0">
			<path style="fill:#00ff00;fill-rule:evenodd"
				d="M107.08,37.68L20.98,61.90L18.71,61.97L18.98,61.30L20.44,59.13L37.14,54.07L37.71,54.07L37.71,54.37L38.20,54.40L43.59,52.69L43.59,52.25L68.31,44.88L68.90,44.92L69.47,45.32L77.02,42.95L76.64,42.39L105.16,34.07L105.40,37.21L105.69,37.15zM29.15,147.61L29.40,149.58L30.99,149.88L31.31,148.42L31.59,148.39L31.53,149.10L37.22,149.95L37.09,149.01L38.87,149.01L60.04,152.06L60.29,154.32L61.71,154.59L62.43,154.61L62.74,153.73L68.66,154.58L69.52,154.59L69.18,154.02L69.11,153.46L97.35,157.34L101.81,161.82L100.95,161.82L15.48,148.47L15.40,146.22L17.43,145.94z" />
		</g>
		<g id="hotspot.8" ident="" onmouseover="ShowHotSpot(evt,&apos;8&apos;)"
			onmouseout="HideHotSpot(evt,&apos;8&apos;)" onmousemove="ShowToolTip(evt,&apos;8&apos;,&quot;9&quot;)"
			opacity="0">
			<path style="fill:#00ff00;fill-rule:evenodd"
				d="M74.00,38.18L77.03,42.95L69.11,45.29L69.40,44.35L70.53,41.84L73.10,42.22L73.41,41.68L73.43,40.14L73.14,39.87L71.62,39.42L71.89,38.48L73.03,37.93L73.67,37.91zM43.63,52.69L39.36,54.11L37.67,54.40L38.77,51.82L40.73,51.86L41.13,51.12L41.14,50.47L40.82,49.92L39.60,49.73L39.92,48.55L40.75,48.22L41.36,48.23zM36.65,148.17L37.21,149.95L31.53,149.10L31.58,148.53L31.83,148.18L34.33,147.90L34.72,147.45L34.73,146.19L34.46,145.91L32.91,145.67L33.74,144.25L34.98,144.28zM66.43,148.18L69.51,154.58L68.66,154.58L63.06,153.78L62.70,153.53L62.70,152.93L63.26,152.60L65.86,152.16L66.18,151.62L66.18,150.68L65.65,149.84L63.81,149.93L64.12,149.01L64.69,147.89z" />
		</g>
		<g id="hotspot.9" ident="" onmouseover="ShowHotSpot(evt,&apos;9&apos;)"
			onmouseout="HideHotSpot(evt,&apos;9&apos;)" onmousemove="ShowToolTip(evt,&apos;9&apos;,&quot;7&quot;)"
			opacity="0">
			<path style="fill:#00ff00;fill-rule:evenodd"
				d="M70.09,37.36L70.07,42.23L69.83,42.55L68.57,42.97L67.54,42.98L67.53,38.02L67.99,37.37L69.79,37.06zM37.52,52.27L37.22,52.53L35.73,52.82L35.82,48.06L36.55,47.67L37.49,47.67zM31.08,145.12L30.99,149.87L29.40,149.58L29.40,144.91L30.54,144.81zM62.29,148.98L62.57,149.25L62.44,154.61L61.71,154.59L60.29,154.32L60.31,148.79z" />
		</g>
		<g id="hotspot.10" ident="" onmouseover="ShowHotSpot(evt,&apos;10&apos;)"
			onmouseout="HideHotSpot(evt,&apos;10&apos;)" onmousemove="ShowToolTip(evt,&apos;10&apos;,&quot;16&quot;)"
			opacity="0">
			<path style="fill:#00ff00;fill-rule:evenodd"
				d="M89.55,24.85L89.81,28.61L89.47,28.62L89.28,25.10L88.98,24.80L88.63,24.85L87.87,26.10L87.84,25.22L88.61,24.27L88.98,24.27zM126.57,27.11L126.03,27.11L125.47,26.23L125.17,26.32L124.88,29.99L124.88,26.07L125.35,25.66L125.73,25.66zM156.08,38.76L156.36,39.71L156.10,39.65L155.51,38.74L155.04,38.67L155.15,38.47L155.79,38.46zM154.95,41.96L154.85,38.77L155.04,38.67zM36.18,43.41L35.42,43.48L34.92,44.18L34.60,44.09L35.44,42.92L35.83,42.91zM36.37,46.41L36.18,43.41L36.37,43.51zM25.83,135.90L25.77,138.57L25.45,138.57L25.23,135.90L24.88,135.87L24.10,137.14L24.10,136.28L24.57,135.62L25.54,135.61zM74.54,140.07L74.48,143.58L74.16,143.58L73.94,140.07L73.58,140.03L72.79,141.62L72.47,141.61L72.52,141.04L73.28,139.79L74.26,139.79zM138.55,162.92L138.24,164.98L137.96,162.90L137.62,162.87L136.01,164.70L136.01,164.17L137.60,162.34L137.97,162.34z" />
		</g>
		<g id="hotspot.11" ident="" onmouseover="ShowHotSpot(evt,&apos;11&apos;)"
			onmouseout="HideHotSpot(evt,&apos;11&apos;)" onmousemove="ShowToolTip(evt,&apos;11&apos;,&quot;21&quot;)"
			opacity="0">
			<path style="fill:#00ff00;fill-rule:evenodd"
				d="M139.91,26.54L139.63,44.75L138.79,44.65L109.03,34.05L108.74,33.78L108.73,12.60zM165.80,37.95L165.80,54.21L165.26,54.13L143.17,46.11L143.26,27.90zM165.81,57.46L165.83,58.06L151.61,97.05L148.82,96.96L93.04,90.93L93.41,88.68L107.56,37.94L108.17,37.92zM24.56,127.58L71.63,126.19L78.69,126.17L78.39,132.71L77.87,132.61L75.64,130.34L25.80,127.86zM126.57,27.11L126.03,27.11L125.47,26.23L125.17,26.32L124.88,29.99L124.88,26.07L125.35,25.66L125.73,25.66zM156.08,38.76L156.36,39.71L156.10,39.65L155.51,38.74L155.04,38.67L155.15,38.47L155.79,38.46zM154.95,41.96L154.85,38.77L155.04,38.67z" />
		</g>
		<g id="hotspot.12" ident="" onmouseover="ShowHotSpot(evt,&apos;12&apos;)"
			onmouseout="HideHotSpot(evt,&apos;12&apos;)" onmousemove="ShowToolTip(evt,&apos;12&apos;,&quot;1&quot;)"
			opacity="0">
			<path style="fill:#00ff00;fill-rule:evenodd"
				d="M110.14,8.72L161.07,32.38L167.22,35.42L167.12,37.96L165.79,37.97L143.26,27.93L142.97,26.82L141.88,26.25L139.35,26.27L108.74,12.63L108.67,11.54L109.00,11.29L109.21,8.42zM19.28,127.29L79.53,125.63L78.90,125.93L33.86,127.39L19.92,127.60z" />
		</g>
		<g id="hotspot.13" ident="" onmouseover="ShowHotSpot(evt,&apos;13&apos;)"
			onmouseout="HideHotSpot(evt,&apos;13&apos;)" onmousemove="ShowToolTip(evt,&apos;13&apos;,&quot;2&quot;)"
			opacity="0">
			<path style="fill:#00ff00;fill-rule:evenodd"
				d="M163.01,53.27L167.23,54.89L167.42,57.24L167.73,57.46L167.70,57.70L166.63,57.74L105.87,37.13L107.34,36.81L108.17,37.14L109.01,37.23L109.21,34.30L109.84,34.30z" />
		</g>
		<g id="hotspot.14" ident="" onmouseover="ShowHotSpot(evt,&apos;14&apos;)"
			onmouseout="HideHotSpot(evt,&apos;14&apos;)" onmousemove="ShowToolTip(evt,&apos;14&apos;,&quot;12&quot;)"
			opacity="0">
			<path style="fill:#00ff00;fill-rule:evenodd"
				d="M109.05,8.14L109.02,11.34L108.47,11.26L107.06,10.65L106.42,10.64L105.87,10.97L105.04,11.07L105.12,7.69L107.07,7.03zM109.05,34.02L109.01,37.23L108.17,37.14L107.34,36.81L105.39,37.22L105.32,33.78L107.10,33.23zM168.59,35.73L168.61,38.31L167.38,37.76L167.39,35.42L168.03,35.40zM168.59,55.21L168.58,57.55L167.72,57.48L167.38,57.24L167.47,54.62zM16.91,63.55L16.91,64.49L16.49,65.24L16.07,65.24L15.75,64.69L15.75,63.35L16.21,62.70L16.36,62.70zM15.22,129.91L14.28,129.82L14.56,127.56L15.48,127.54zM15.25,146.20L15.22,148.28L14.28,148.28L14.29,145.92L14.95,145.89zM170.29,152.99L169.05,154.29L167.91,154.30L169.05,152.91L170.29,152.36zM107.92,164.60L110.14,164.58L108.37,166.82L106.16,167.21L105.10,165.45L105.12,164.42L106.68,162.64z" />
		</g>
		<g id="hotspot.15" ident="" onmouseover="ShowHotSpot(evt,&apos;15&apos;)"
			onmouseout="HideHotSpot(evt,&apos;15&apos;)" onmousemove="ShowToolTip(evt,&apos;15&apos;,&quot;22&quot;)"
			opacity="0">
			<path style="fill:#00ff00;fill-rule:evenodd"
				d="M106.04,167.00L106.77,167.22L108.35,166.81L109.48,166.26L164.68,155.10L162.21,158.03L149.94,171.37L90.27,187.74L89.71,187.72L93.19,183.10L105.60,166.78zM126.43,182.22L126.54,181.70L127.56,180.44L145.11,175.44L146.06,175.45L146.10,175.81L141.47,180.72L140.38,182.13L130.35,185.22L129.63,185.22L127.69,182.39zM89.00,191.70L91.67,190.77L111.99,184.91L112.91,184.89L106.41,192.70L80.55,200.81L79.68,200.79L87.78,190.16L88.12,190.19zM78.70,204.39L76.62,205.05L76.71,204.52L77.75,203.23L78.10,203.27zM138.55,162.92L138.24,164.98L137.96,162.90L137.62,162.87L136.01,164.70L136.01,164.17L137.60,162.34L137.97,162.34z" />
		</g>
		<g id="hotspot.16" ident="" onmouseover="ShowHotSpot(evt,&apos;16&apos;)"
			onmouseout="HideHotSpot(evt,&apos;16&apos;)" onmousemove="ShowToolTip(evt,&apos;16&apos;,&quot;3&quot;)"
			opacity="0">
			<path style="fill:#00ff00;fill-rule:evenodd"
				d="M19.14,65.50L17.72,65.50L16.49,65.23L17.05,64.37L18.56,64.40zM170.00,152.50L168.88,153.01L167.94,154.30L110.69,166.08L108.92,166.28L110.14,164.58L107.92,164.60L107.36,163.74L107.23,162.93L167.94,151.52L169.45,151.49z" />
		</g>
		<g id="hotspot.17" ident="" onmouseover="ShowHotSpot(evt,&apos;17&apos;)"
			onmouseout="HideHotSpot(evt,&apos;17&apos;)" onmousemove="ShowToolTip(evt,&apos;17&apos;,&quot;4&quot;)"
			opacity="0">
			<path style="fill:#00ff00;fill-rule:evenodd"
				d="M28.97,83.18L29.15,83.98L28.18,83.88L28.73,83.02zM150.54,172.08L150.80,172.75L149.84,174.06L89.50,191.41L89.53,190.89L90.40,190.02L90.40,189.37L89.74,187.96L95.30,186.32L149.29,171.54L150.20,171.56z" />
		</g>
		<g id="hotspot.18" ident="" onmouseover="ShowHotSpot(evt,&apos;18&apos;)"
			onmouseout="HideHotSpot(evt,&apos;18&apos;)" onmousemove="ShowToolTip(evt,&apos;18&apos;,&quot;5&quot;)"
			opacity="0">
			<path style="fill:#00ff00;fill-rule:evenodd"
				d="M35.57,95.28L34.57,95.28L34.91,94.71L35.23,94.71zM141.04,183.51L140.08,184.62L129.81,188.09L129.81,185.48L139.26,182.41L140.47,182.41zM114.36,192.71L114.63,192.96L79.49,204.50L79.50,203.97L80.38,203.11L80.08,202.18L79.75,201.61L79.69,201.08L106.55,192.75L109.56,191.95L110.97,191.88z" />
		</g>
		<g id="hotspot.19" ident="" onmouseover="ShowHotSpot(evt,&apos;19&apos;)"
			onmouseout="HideHotSpot(evt,&apos;19&apos;)" onmousemove="ShowToolTip(evt,&apos;19&apos;,&quot;13&quot;)"
			opacity="0">
			<path style="fill:#00ff00;fill-rule:evenodd"
				d="M28.60,82.76L28.27,83.72L27.96,83.72L27.34,82.20L27.68,81.62L27.99,81.62zM34.98,94.42L34.45,95.40L33.50,93.87L34.14,92.79zM90.40,189.37L90.40,190.02L89.01,191.72L88.05,189.90L89.57,187.96zM79.80,201.58L80.38,203.11L78.99,204.80L78.04,202.98L79.41,201.32z" />
		</g>
		<g id="hotspot.20" ident="" onmouseover="ShowHotSpot(evt,&apos;20&apos;)"
			onmouseout="HideHotSpot(evt,&apos;20&apos;)" onmousemove="ShowToolTip(evt,&apos;20&apos;,&quot;15&quot;)"
			opacity="0">
			<path style="fill:#00ff00;fill-rule:evenodd"
				d="M165.53,151.87L164.90,152.10L164.03,152.18L164.11,151.32L164.97,149.30z" />
		</g>
		<g id="hotspot.21" ident="" onmouseover="ShowHotSpot(evt,&apos;21&apos;)"
			onmouseout="HideHotSpot(evt,&apos;21&apos;)" onmousemove="ShowToolTip(evt,&apos;21&apos;,&quot;14&quot;)"
			opacity="0">
			<path style="fill:#00ff00;fill-rule:evenodd"
				d="M168.06,151.21L167.97,151.51L165.73,151.90L165.49,151.56L165.13,149.01zM112.65,161.83L110.32,162.37L108.19,162.37L105.32,159.28z" />
		</g>
		<g id="hotspot.22" ident="" onmouseover="ShowHotSpot(evt,&apos;22&apos;)"
			onmouseout="HideHotSpot(evt,&apos;22&apos;)" onmousemove="ShowToolTip(evt,&apos;22&apos;,&quot;17&quot;)"
			opacity="0">
			<path style="fill:#00ff00;fill-rule:evenodd"
				d="M127.20,180.89L126.46,181.85L123.78,181.95L121.73,184.37L120.72,184.37L116.90,183.70L119.79,182.69L127.13,180.74zM116.80,183.88L113.92,187.40L110.55,188.53L110.27,188.79L112.10,189.39L112.13,189.73L110.39,191.67L106.76,192.80L106.78,192.28L113.22,184.75L113.93,184.35L116.90,183.70z" />
		</g>
		<g id="hotspot.23" ident="" onmouseover="ShowHotSpot(evt,&apos;23&apos;)"
			onmouseout="HideHotSpot(evt,&apos;23&apos;)" onmousemove="ShowToolTip(evt,&apos;23&apos;,&quot;18&quot;)"
			opacity="0">
			<path style="fill:#00ff00;fill-rule:evenodd"
				d="M122.42,189.68L122.43,189.99L120.43,189.93L111.53,189.09L110.27,188.79L110.55,188.53L113.38,187.69L114.30,187.70z" />
		</g>
		<g id="hotspot.24" ident="" onmouseover="ShowHotSpot(evt,&apos;24&apos;)"
			onmouseout="HideHotSpot(evt,&apos;24&apos;)" onmousemove="ShowToolTip(evt,&apos;24&apos;,&quot;19&quot;)"
			opacity="0">
			<path style="fill:#00ff00;fill-rule:evenodd"
				d="M127.69,182.39L129.63,185.19L129.62,189.47L129.34,190.30L127.84,191.88L126.83,191.89L122.85,191.01L122.68,192.55L121.17,194.10L119.87,194.11L110.93,191.91L110.58,191.67L110.67,191.16L112.28,189.38L114.59,189.37L120.43,189.93L122.43,189.99L122.42,189.68L114.25,187.72L113.93,187.40L116.98,183.79L118.20,183.81L120.72,184.37L121.73,184.37L123.78,181.95L124.88,181.85zM127.98,186.55L127.86,188.27L124.32,189.45L122.85,189.77L122.85,187.43L126.18,186.31L127.71,186.28z" />
		</g>
		<g id="hotspot.25" ident="" onmouseover="ShowHotSpot(evt,&apos;25&apos;)"
			onmouseout="HideHotSpot(evt,&apos;25&apos;)" onmousemove="ShowToolTip(evt,&apos;25&apos;,&quot;20&quot;)"
			opacity="0">
			<path style="fill:#00ff00;fill-rule:evenodd"
				d="M127.98,186.55L127.86,188.27L124.32,189.45L122.85,189.77L122.85,187.43L126.18,186.31L127.71,186.28z" />
		</g>
		<g id="hotspot.26" ident="" onmouseover="ShowHotSpot(evt,&apos;26&apos;)"
			onmouseout="HideHotSpot(evt,&apos;26&apos;)" onmousemove="ShowToolTip(evt,&apos;26&apos;,&quot;10&quot;)"
			opacity="0">
			<path style="fill:#00ff00;fill-rule:evenodd"
				d="M99.29,139.81L99.28,141.31L98.99,142.14L97.59,142.06L97.59,139.54zM130.73,142.34L130.73,144.96L128.68,144.66L128.68,142.04L129.90,142.05z" />
		</g>
		<g id="hotspot.27" ident="" onmouseover="ShowHotSpot(evt,&apos;27&apos;)"
			onmouseout="HideHotSpot(evt,&apos;27&apos;)" onmousemove="ShowToolTip(evt,&apos;27&apos;,&quot;8&quot;)"
			opacity="0">
			<path style="fill:#00ff00;fill-rule:evenodd"
				d="M73.14,39.87L73.43,40.14L73.41,41.68L73.10,42.22L71.99,42.13L70.24,41.65L70.23,39.32L71.17,39.33zM40.82,49.92L41.14,50.47L41.13,51.12L40.73,51.86L39.43,51.87L38.00,51.63L37.67,51.40L37.67,49.34zM34.73,146.19L34.72,147.45L34.33,147.90L31.27,148.29L31.26,146.22L34.46,145.92zM66.18,150.68L66.18,151.62L65.86,152.16L62.72,152.75L62.72,150.41L63.26,150.10L65.65,149.84z" />
		</g>



































		<!--  -->


	</g>
</svg>